<?xml version="1.0" encoding="iso-8859-1" standalone="yes"?>
<!DOCTYPE svg PUBLIC "-//W3C//DTD SVG 1.1//EN" "http://www.w3.org/Graphics/SVG/1.1/DTD/svg11.dtd">

<svg xmlns="http://www.w3.org/2000/svg" xmlns:xlink="http://www.w3.org/1999/xlink" version="1.1" x="0px" y="0px" width="24px" height="24px" viewBox="0 0 24 24" style="enable-background:new 0 0 24 24;" xml:space="preserve">
    <g>
       <g>
          <g>
              <path d="M7.001,8c-1.654,0-3-1.346-3-3s1.346-3,3-3s3,1.346,3,3S8.655,8,7.001,8z M7.001,4      c-0.551,0-1,0.449-1,1s0.449,1,1,1s1-0.449,1-1S7.552,4,7.001,4z"></path>
          </g>
          <g>
              <path d="M9.001,22h-4c-0.552,0-1-0.448-1-1v-4h-1c-0.552,0-1-0.448-1-1v-3c0-2.757,2.243-5,5-5      s5,2.243,5,5v3c0,0.552-0.448,1-1,1h-1v4C10.001,21.551,9.553,22,9.001,22z M6.001,20h2v-4c0-0.552,0.448-1,1-1h1v-2      c0-1.654-1.346-3-3-3s-3,1.346-3,3v2h1c0.552,0,1,0.448,1,1V20z"></path>
          </g>
        </g>
        <path d="M19,5h-2c-0.551,0-1-0.448-1-1c0-0.552,0.449-1,1-1h4V1h-2V0h-2v1c-1.654,0-3,1.347-3,3    c0,1.654,1.346,3,3,3h2c0.551,0,1,0.448,1,1c0,0.552-0.449,1-1,1h-4v2h2v1h2v-1c1.654,0,3-1.346,3-3C22,6.347,20.654,5,19,5z"></path>
    </g>
</svg>
