<svg xmlns="http://www.w3.org/2000/svg" viewBox="0 0 24 21">
  <path fill-rule="evenodd" d="M21.53 19.506l-1.252 1.253-2.875-2.876a4.385 4.385 0 0 1-2.437.738 4.431 4.431 0 0 1-4.426-4.427 4.432 4.432 0 0 1 4.426-4.426 4.432 4.432 0 0 1 4.427 4.426c0 .902-.273 1.739-.738 2.438l2.875 2.874zm-6.564-7.967a2.659 2.659 0 0 0-2.656 2.655 2.658 2.658 0 0 0 2.656 2.656 2.658 2.658 0 0 0 2.656-2.656 2.658 2.658 0 0 0-2.656-2.655zm.886-4.427H12.31v1.49a6.191 6.191 0 0 0-3.541 5.592H2.572a1.772 1.772 0 0 1-1.771-1.77V5.341h17.707v3.772a6.156 6.156 0 0 0-2.656-1.045v-.956zM3.457 11.539h4.427V9.768H3.457v1.771zm6.197-4.427H3.457v1.771h6.197V7.112zM.801 1.8c0-.977.794-1.771 1.771-1.771h14.165c.976 0 1.771.794 1.771 1.771v1.771H.801V1.8z"/>
</svg>