<svg xmlns="http://www.w3.org/2000/svg" width="15" height="15" viewBox="0 0 17 17">
  <path d="M10.4 10.4c-.9.9-2 1.3-3.2 1.3-1.3 0-2.3-.4-3.2-1.3-.9-.9-1.3-2-1.3-3.2C2.6 5.9 3.1 4.9 4 4c.9-.9 2-1.3 3.2-1.3 1.3 0 2.3.4 3.2 1.3.9.9 1.3 2 1.3 3.2.1 1.3-.4 2.3-1.3 3.2zm6.2 4.4l-3.5-3.5c.8-1.2 1.3-2.6 1.3-4.1 0-1-.2-1.9-.6-2.8-.4-.9-.9-1.7-1.5-2.3-.6-.6-1.4-1.2-2.3-1.5C9.1.2 8.2 0 7.2 0c-1 0-1.9.2-2.8.6-.9.3-1.7.9-2.3 1.5C1.5 2.7.9 3.5.6 4.4.2 5.3 0 6.2 0 7.2c0 1 .2 1.9.6 2.8.4.9.9 1.7 1.5 2.3.6.6 1.4 1.2 2.3 1.5.9.4 1.8.6 2.8.6 1.5 0 2.9-.4 4.1-1.3l3.5 3.5c.2.3.6.4.9.4.4 0 .7-.1.9-.4.3-.3.4-.6.4-.9 0-.4-.1-.7-.4-.9z"/>
</svg>