<svg xmlns="http://www.w3.org/2000/svg" viewBox="0 0 21 21">
  <path fill-rule="evenodd" d="M20 9h-2.069A8.01 8.01 0 0 0 11 2.069V0H9v2.069A8.01 8.01 0 0 0 2.069 9H0v2h2.069A8.01 8.01 0 0 0 9 17.931V20h2v-2.069A8.01 8.01 0 0 0 17.931 11H20V9zm-4.09 0h-3.094A2.982 2.982 0 0 0 11 7.184V4.09A6.008 6.008 0 0 1 15.91 9zM9 4.09v3.094A2.985 2.985 0 0 0 7.184 9H4.09A6.008 6.008 0 0 1 9 4.09zM4.09 11h3.094A2.982 2.982 0 0 0 9 12.816v3.094A6.008 6.008 0 0 1 4.09 11zM11 15.91v-3.094A2.982 2.982 0 0 0 12.816 11h3.094A6.008 6.008 0 0 1 11 15.91z"/>
</svg>