<svg xmlns="http://www.w3.org/2000/svg" viewBox="0 0 24 21" width="24" height="24">
  <path fill-rule="evenodd" d="M15.76 11.92c-.276 0-.544.032-.803.088L12.513 7.12a3.818 3.818 0 0 0 1.327-2.88A3.845 3.845 0 0 0 10 .4a3.845 3.845 0 0 0-3.84 3.84c0 1.152.521 2.175 1.327 2.88l-2.444 4.888a3.792 3.792 0 0 0-.803-.088A3.845 3.845 0 0 0 .4 15.76a3.845 3.845 0 0 0 3.84 3.84c1.784 0 3.274-1.229 3.704-2.88h4.112c.43 1.651 1.92 2.88 3.704 2.88a3.845 3.845 0 0 0 3.84-3.84 3.845 3.845 0 0 0-3.84-3.84zM9.197 7.992c.259.056.527.088.803.088s.544-.032.803-.088l2.444 4.888a3.825 3.825 0 0 0-1.191 1.92H7.944a3.825 3.825 0 0 0-1.191-1.92l2.444-4.888z"/>
</svg>