<?xml version="1.0" encoding="utf-8"?>
<!-- Generator: Adobe Illustrator 19.0.0, SVG Export Plug-In . SVG Version: 6.00 Build 0)  -->
<svg version="1.1" fill="#a4a6b3" xmlns="http://www.w3.org/2000/svg" xmlns:xlink="http://www.w3.org/1999/xlink" x="0px" y="0px"
	 viewBox="0 0 195 75.5" style="enable-background:new 0 0 195 75.5;" xml:space="preserve">
<g id="_x35__1_" class="st0">
	<g id="_x35_">
		<g>
			<path d="M43.8,40.1c-1.2-2.7-2.8-5-4.8-6.9c-2-1.9-4.4-3.4-7.1-4.5c-2.7-1.1-5.6-1.6-8.7-1.6s-6,0.6-8.7,1.7
				c-2.7,1.1-5.1,2.7-7,4.8l5.4-27.3h29.3V1.7h-33C7.8,8.2,6.6,14,5.5,19.3c-0.5,2.3-0.9,4.5-1.4,6.8c-0.5,2.3-0.9,4.3-1.2,6.2
				c-0.4,1.9-0.7,3.5-1,4.8c-0.3,1.4-0.5,2.3-0.5,2.7h4.7c1.9-2.7,4.3-4.8,7.2-6.3c2.9-1.5,6-2.2,9.3-2.2c2.5,0,4.9,0.4,7,1.3
				c2.2,0.8,4.1,2,5.7,3.6c1.6,1.6,2.9,3.4,3.8,5.5c0.9,2.1,1.4,4.5,1.4,7.1c0,2.7-0.5,5.2-1.5,7.4c-1,2.2-2.3,4.1-3.9,5.7
				c-1.7,1.6-3.6,2.9-5.9,3.7c-2.3,0.9-4.7,1.3-7.3,1.3c-3.9,0-7.6-1-10.9-3.1c-3.3-2-5.8-4.7-7.6-8.1L0,58c1.9,4.1,4.9,7.4,8.8,9.8
				c3.9,2.5,8.3,3.7,13.3,3.7c3.2,0,6.2-0.5,9-1.6c2.8-1.1,5.3-2.6,7.5-4.6c2.1-2,3.8-4.4,5.1-7.1c1.3-2.7,1.9-5.8,1.9-9.3
				C45.5,45.7,45,42.7,43.8,40.1z"/>
		</g>
	</g>
</g>
<g id="_x30__1_" class="st0">
	<g id="_x30_">
		<g>
			<path d="M187.7,9.9c-4.9-6.1-11.9-9.2-21.1-9.2c-9.1,0-16.1,3.1-21,9.2c-4.9,6.2-7.4,14.9-7.4,26.3
				c0,11.4,2.5,20.3,7.4,26.4c4.9,6.2,11.9,9.2,21,9.2c9.2,0,16.2-3.1,21.1-9.2c4.9-6.2,7.3-15,7.3-26.4
				C195,24.8,192.6,16,187.7,9.9z M184.5,59.9c-4.1,5.5-10.1,8.2-17.9,8.2c-7.8,0-13.8-2.7-17.9-8.2s-6.2-13.3-6.2-23.6
				s2.1-18.2,6.2-23.6c4.1-5.4,10.1-8.1,17.9-8.1c7.8,0,13.8,2.7,17.9,8.1c4.1,5.4,6.2,13.3,6.2,23.6S188.7,54.4,184.5,59.9z"/>
		</g>
	</g>
</g>
<g id="Vector_Smart_Object_xA0_Image_1_">
	<path d="M69.8,6.2L60.1,16c-0.5,0.5-0.5,1.2-0.1,1.8c1.2,1.7,2.5,3.5,4,5.5c-0.9,1.8-1.7,3.6-2.3,5.6
		c-2.3,0.3-4.5,0.7-6.6,1c-0.7,0.1-1.1,0.7-1.1,1.4v13.9c0,0.7,0.5,1.2,1.1,1.4c2.1,0.4,4.3,0.7,6.6,1c0.6,1.9,1.3,3.8,2.3,5.6
		c-1.5,2-2.8,3.8-4,5.5c-0.4,0.5-0.3,1.3,0.1,1.8l9.7,9.8c0.5,0.5,1.2,0.5,1.7,0.1c1.7-1.2,3.5-2.6,5.4-4.1c1.7,0.9,3.6,1.7,5.5,2.3
		c0.3,2.3,0.7,4.5,1,6.7c0.1,0.7,0.7,1.1,1.3,1.1h13.8c0.7,0,1.2-0.5,1.3-1.1c0.4-2.1,0.7-4.4,1-6.7c1.9-0.6,3.8-1.4,5.5-2.3
		c1.9,1.5,3.7,2.8,5.4,4.1c0.5,0.4,1.3,0.3,1.7-0.1l9.7-9.8c0.5-0.5,0.5-1.2,0.1-1.8c-1.2-1.7-2.5-3.5-4-5.5
		c0.9-1.8,1.7-3.6,2.3-5.6c2.3-0.3,4.5-0.7,6.6-1c0.7-0.1,1.1-0.7,1.1-1.4V31.2c0-0.7-0.5-1.2-1.1-1.4c-2.1-0.4-4.3-0.7-6.6-1
		c-0.6-1.9-1.3-3.8-2.3-5.6c1.5-2,2.8-3.8,4-5.5c0.4-0.5,0.3-1.3-0.1-1.8l-9.7-9.8c-0.5-0.5-1.2-0.5-1.7-0.1
		c-1.7,1.2-3.5,2.6-5.4,4.1c-1.7-0.9-3.6-1.7-5.5-2.3c-0.3-2.3-0.7-4.5-1-6.7C99.9,0.5,99.3,0,98.6,0H84.9c-0.7,0-1.2,0.5-1.3,1.1
		c-0.4,2.1-0.7,4.3-1,6.7c-1.9,0.6-3.8,1.4-5.5,2.3c-1.9-1.5-3.7-2.8-5.4-4.1C71,5.7,70.3,5.7,69.8,6.2z M77.7,12.9
		c2-1.1,4.1-2,6.4-2.6c0.6-0.2,1-0.7,1.1-1.3c0.3-2.1,0.6-4.2,0.9-6.2h11.5c0.3,2,0.6,4.1,0.9,6.2c0.1,0.6,0.5,1.1,1.1,1.3
		c2.2,0.6,4.4,1.5,6.3,2.6c0.5,0.3,1.2,0.3,1.7-0.1c1.8-1.4,3.5-2.6,5-3.8l8.1,8.2c-1.1,1.6-2.4,3.3-3.7,5.1
		c-0.4,0.5-0.4,1.2-0.1,1.7c1.1,2,2,4.1,2.6,6.4c0.2,0.6,0.7,1.1,1.3,1.1c2.1,0.3,4.2,0.6,6.1,0.9v11.6c-2,0.3-4,0.6-6.1,0.9
		c-0.6,0.1-1.1,0.5-1.3,1.1c-0.6,2.2-1.5,4.4-2.6,6.4c-0.3,0.5-0.3,1.2,0.1,1.7c1.4,1.8,2.6,3.5,3.8,5.1l-8.1,8.2
		c-1.6-1.2-3.3-2.4-5.1-3.8c-0.5-0.4-1.2-0.4-1.7-0.1c-2,1.1-4.1,2-6.3,2.6c-0.6,0.2-1,0.7-1.1,1.3c-0.3,2.1-0.6,4.2-0.9,6.2H86
		c-0.3-2-0.6-4.1-0.9-6.2c-0.1-0.6-0.5-1.1-1.1-1.3c-2.2-0.6-4.4-1.5-6.3-2.6c-0.5-0.3-1.2-0.3-1.7,0.1c-1.8,1.4-3.5,2.6-5,3.8
		l-8.1-8.2c1.1-1.6,2.4-3.3,3.7-5.1c0.4-0.5,0.4-1.2,0.1-1.7c-1.1-2-2-4.1-2.6-6.4c-0.2-0.6-0.7-1-1.3-1.1c-2.1-0.3-4.2-0.6-6.1-0.9
		V32.4c2-0.3,4-0.6,6.1-0.9c0.6-0.1,1.1-0.5,1.3-1.1c0.6-2.2,1.5-4.4,2.6-6.4c0.3-0.5,0.2-1.2-0.1-1.7c-1.4-1.8-2.6-3.5-3.8-5.1
		l8.1-8.2c1.6,1.2,3.2,2.4,5.1,3.8C76.5,13.1,77.1,13.2,77.7,12.9z"/>
	<path d="M91.8,60.7c12.3,0,22.3-10.1,22.3-22.6c0-12.4-10-22.6-22.3-22.6c-12.3,0-22.3,10.1-22.3,22.6
		C69.4,50.6,79.4,60.7,91.8,60.7z M91.8,18.3c10.8,0,19.6,8.9,19.6,19.8c0,10.9-8.8,19.8-19.6,19.8c-10.8,0-19.6-8.9-19.6-19.8
		C72.1,27.2,80.9,18.3,91.8,18.3z"/>
	<path d="M91.8,50.4c6.7,0,12.2-5.5,12.2-12.3s-5.5-12.3-12.2-12.3s-12.2,5.5-12.2,12.3S85,50.4,91.8,50.4z M91.8,27.2
		c6,0,10.8,4.9,10.8,10.9c0,6-4.8,10.9-10.8,10.9c-6,0-10.8-4.9-10.8-10.9C80.9,32.1,85.8,27.2,91.8,27.2z"/>
</g>
</svg>
