<?xml version="1.0" encoding="UTF-8"?>
<svg version="1.1" viewBox="0 0 24 24" xmlns="http://www.w3.org/2000/svg" xmlns:xlink="http://www.w3.org/1999/xlink">
  <path d="M8,18h-6v-10h18v-3c0,-1.102 -0.897,-2 -2,-2h-1v-3h-2v5h-1v-2h-7v-3h-2v5h-1v-2h-2c-1.103,0 -2,0.897 -2,2v13c0,1.103 0.897,2 2,2h6v-2Z"></path>
  <g>
    <path d="M17,24c-3.86,0 -7,-3.14 -7,-7c0,-3.86 3.14,-7 7,-7c3.86,0 7,3.14 7,7c0,3.86 -3.14,7 -7,7Zm0,-12c-2.757,0 -5,2.243 -5,5c0,2.757 2.243,5 5,5c2.757,0 5,-2.243 5,-5c0,-2.757 -2.243,-5 -5,-5Z"></path>
    <path d="M20,18h-4v-5h2v3h2Z"></path>
  </g>
</svg>
