<?xml version="1.0" encoding="utf-8"?>
<!-- Generator: Adobe Illustrator 19.0.0, SVG Export Plug-In . SVG Version: 6.00 Build 0)  -->
<svg version="1.1" id="Layer_1" xmlns="http://www.w3.org/2000/svg" xmlns:xlink="http://www.w3.org/1999/xlink" x="0px" y="0px"
	 viewBox="0 0 20 20" style="enable-background:new 0 0 20 20;" xml:space="preserve">
<path d="M16,0c-0.5,0-0.9,0.3-1,0.8l-1,4.2H1C0.7,5,0.4,5.1,0.2,5.4C0,5.6,0,5.9,0,6.2l2,8C2.1,14.7,2.5,15,3,15h10
			c0.5,0,0.9-0.3,1-0.8L16.8,2H20V0H16z M13.6,7l-0.5,2H2.8L2.3,7H13.6z M3.8,13l-0.5-2h9.4l-0.5,2H3.8z"/>
<path d="M4,16c-1.1,0-2,0.9-2,2c0,1.1,0.9,2,2,2s2-0.9,2-2C6,16.9,5.1,16,4,16"/>
<path d="M12,16c-1.1,0-2,0.9-2,2c0,1.1,0.9,2,2,2s2-0.9,2-2C14,16.9,13.1,16,12,16"/>
</svg>
