<?xml version="1.0" encoding="utf-8"?>
<!-- Generator: Adobe Illustrator 19.0.0, SVG Export Plug-In . SVG Version: 6.00 Build 0)  -->
<svg version="1.1" id="Layer_1" xmlns="http://www.w3.org/2000/svg" xmlns:xlink="http://www.w3.org/1999/xlink" x="0px" y="0px"
	 viewBox="0 0 24 21" style="enable-background:new 0 0 24 21;" xml:space="preserve">
<path fill-rule="evenodd"
 d="M11.407,11.552 L13.637,9.321 L12.150,7.834 L13.637,6.347 L15.125,7.834 L16.612,6.347 L15.125,4.859 L16.613,3.372 L18.101,4.859 L19.587,3.372 L16.613,0.396 L8.432,8.578 L7.688,7.834 C6.867,7.012 5.535,7.012 4.714,7.834 L0.995,11.552 C0.174,12.373 0.174,13.704 0.996,14.526 L5.458,18.988 C6.279,19.809 7.610,19.809 8.432,18.988 L12.150,15.270 C12.972,14.448 12.972,13.117 12.150,12.296 L11.407,11.552 ZM7.317,14.898 C6.700,15.514 5.702,15.514 5.086,14.898 C4.470,14.282 4.470,13.283 5.086,12.668 C5.702,12.051 6.700,12.051 7.317,12.668 C7.933,13.283 7.933,14.282 7.317,14.898 Z"/>
</svg>
