<?xml version="1.0" encoding="utf-8"?>
<!-- Generator: Adobe Illustrator 19.0.0, SVG Export Plug-In . SVG Version: 6.00 Build 0)  -->
<svg version="1.1" id="Isolation_Mode" xmlns="http://www.w3.org/2000/svg" xmlns:xlink="http://www.w3.org/1999/xlink" x="0px"
	 y="0px" viewBox="0 0 64 64" style="enable-background:new 0 0 64 64;" xml:space="preserve">
<g>
	<path d="M32,0C14.3,0,0,14.3,0,32c0,17.7,14.3,32,32,32c17.7,0,32-14.3,32-32C64,14.3,49.7,0,32,0z
		 M32,60C16.5,60,4,47.5,4,32S16.5,4,32,4s28,12.5,28,28S47.5,60,32,60z"/>
	<path d="M44.3,23.7c-0.8-0.8-2-0.8-2.8,0L29.2,36.1l-6.7-5.7c0,0,0,0,0,0c-0.8-0.8-2-0.8-2.8,0
		c-0.8,0.8-0.8,2,0,2.8l0,0l8.1,7.1l0,0c0.8,0.8,2,0.8,2.8,0l13.8-13.8c0,0,0,0,0,0C45.1,25.7,45.1,24.5,44.3,23.7z"/>
</g>
</svg>
