<?xml version="1.0" encoding="iso-8859-1"?>
<!-- Generator: Adobe Illustrator 16.0.0, SVG Export Plug-In . SVG Version: 6.00 Build 0)  -->
<!DOCTYPE svg PUBLIC "-//W3C//DTD SVG 1.1//EN" "http://www.w3.org/Graphics/SVG/1.1/DTD/svg11.dtd">
<svg version="1.1" xmlns="http://www.w3.org/2000/svg" xmlns:xlink="http://www.w3.org/1999/xlink" x="0px" y="0px" width="24px"
	 height="24px" viewBox="0 0 24 24" style="enable-background:new 0 0 24 24;" xml:space="preserve">
<g id="Line_Icons">
	<g>
		<g>
			<path d="M12,22c-4.962,0-9-4.037-9-9s4.038-9,9-9s9,4.037,9,9S16.962,22,12,22z M12,6c-3.86,0-7,3.14-7,7
				c0,3.86,3.14,7,7,7s7-3.14,7-7C19,9.14,15.86,6,12,6z"/>
		</g>

		<g>
			<path d="M14.293,16.707l-3-3C11.105,13.519,11,13.265,11,13V8h2v4.586l2.707,2.707L14.293,16.707z"/>
		</g>
	</g>
</g>
</svg>
