<?xml version="1.0" encoding="utf-8"?>
<!-- Generator: Adobe Illustrator 19.0.0, SVG Export Plug-In . SVG Version: 6.00 Build 0)  -->
<svg version="1.1" id="Layer_1" xmlns="http://www.w3.org/2000/svg" xmlns:xlink="http://www.w3.org/1999/xlink" x="0px" y="0px"
	 viewBox="0 0 20 22" style="enable-background:new 0 0 20 22;" xml:space="preserve">
<path d="M3,2h10v4h4v1h2V4.6L14.4,0H3C1.9,0,1,0.9,1,2v5h2V2z"/>
<path d="M17,20H3v-1H1v1c0,1.1,0.9,2,2,2h14c1.1,0,2-0.9,2-2v-1h-2V20z"/>
<path d="M6,17v-2H3c-0.6,0-1-0.4-1-1v-2c0-0.6,0.4-1,1-1h3V9H3c-1.7,0-3,1.3-3,3v2c0,1.7,1.3,3,3,3H6z"/>
<path d="M9.5,11H13V9H9.5C8.1,9,7,10.1,7,11.5C7,12.9,8.1,14,9.5,14h1c0.3,0,0.5,0.2,0.5,0.5c0,0.3-0.2,0.5-0.5,0.5H7v2
	h3.5c1.4,0,2.5-1.1,2.5-2.5c0-1.4-1.1-2.5-2.5-2.5h-1C9.2,12,9,11.8,9,11.5C9,11.2,9.2,11,9.5,11z"/>
<path d="M17.9,9l-1,3.9L16,9h-2l2,8h0h2h0l0-0.1L20,9H17.9z"/>
</svg>
