<?xml version="1.0" encoding="utf-8"?>
<!-- Generator: Adobe Illustrator 19.0.0, SVG Export Plug-In . SVG Version: 6.00 Build 0)  -->
<svg version="1.1" id="Layer_1" xmlns="http://www.w3.org/2000/svg" xmlns:xlink="http://www.w3.org/1999/xlink" x="0px" y="0px"
	 viewBox="0 0 16 15" style="enable-background:new 0 0 16 15;" xml:space="preserve">
<path d="M7.5,3H11V1H9V0H7v1.1C5.9,1.3,5,2.3,5,3.5C5,4.9,6.1,6,7.5,6h1C8.8,6,9,6.2,9,6.5S8.8,7,8.5,7H5v2h2v1h2
			V8.9c1.1-0.2,2-1.2,2-2.4C11,5.1,9.9,4,8.5,4h-1C7.2,4,7,3.8,7,3.5S7.2,3,7.5,3"/>
<rect y="13" width="16" height="2"/>
</svg>
