<?xml version="1.0" encoding="utf-8"?>
<!-- Generator: Adobe Illustrator 19.0.0, SVG Export Plug-In . SVG Version: 6.00 Build 0)  -->
<svg version="1.1" id="Layer_1" xmlns="http://www.w3.org/2000/svg" xmlns:xlink="http://www.w3.org/1999/xlink" x="0px" y="0px"
	 viewBox="0 0 16 15" style="enable-background:new 0 0 16 15;" xml:space="preserve">
<path d="M7.5,8H11V6H9V5H7v1.1C5.9,6.3,5,7.3,5,8.5C5,9.9,6.1,11,7.5,11h1C8.8,11,9,11.2,9,11.5S8.8,12,8.5,12H5v2
			h2v1h2v-1.1c1.1-0.2,2-1.2,2-2.4C11,10.1,9.9,9,8.5,9h-1C7.2,9,7,8.8,7,8.5S7.2,8,7.5,8"/>
<rect y="0" width="16" height="2"/>
</svg>
