<?xml version="1.0" encoding="utf-8"?>
<!-- Generator: Adobe Illustrator 19.0.0, SVG Export Plug-In . SVG Version: 6.00 Build 0)  -->
<svg version="1.1" id="Isolation_Mode" xmlns="http://www.w3.org/2000/svg" xmlns:xlink="http://www.w3.org/1999/xlink" x="0px"
	 y="0px" viewBox="0 0 20 20" style="enable-background:new 0 0 20 20;" xml:space="preserve">
<path d="M18.8,1.2C18.1,0.4,17,0,16,0c-1.1,0-2.1,0.4-2.8,1.2L1.7,12.6c0,0,0,0,0,0c-0.1,0.1-0.2,0.3-0.3,0.5L0,18.8
	c-0.1,0.3,0,0.7,0.3,0.9l0,0l0,0C0.5,20,0.9,20.1,1.2,20l5.7-1.4c0.2,0,0.4-0.2,0.5-0.3c0,0,0,0,0,0L18.8,6.9C19.6,6.1,20,5.1,20,4
	C20,3,19.6,1.9,18.8,1.2L18.8,1.2z M12.4,4.7l2.9,2.9l-8.6,8.6l-2.9-2.9L12.4,4.7z M2.4,17.6L3,15.3L4.8,17L2.4,17.6z M17.4,2.6
	c0.8,0.8,0.8,2.1,0,2.9l-0.7,0.7l-2.9-2.9l0.7-0.7C15.3,1.8,16.6,1.8,17.4,2.6z"/>
</svg>
