<?xml version="1.0" encoding="utf-8"?>
<!-- Generator: Adobe Illustrator 19.0.0, SVG Export Plug-In . SVG Version: 6.00 Build 0)  -->
<svg version="1.1" id="Layer_1" xmlns="http://www.w3.org/2000/svg" xmlns:xlink="http://www.w3.org/1999/xlink" x="0px" y="0px"
	 viewBox="0 0 24 21" style="enable-background:new 0 0 24 21;" xml:space="preserve">
<path fill-rule="evenodd"
 d="M19.246,6.112 L17.361,8.029 L11.687,2.261 L6.636,7.395 L5.388,6.125 L11.063,0.357 C11.228,0.188 11.453,0.094 11.687,0.094 C11.921,0.094 12.145,0.188 12.311,0.357 L13.578,1.645 L14.215,0.998 C14.560,0.647 15.118,0.647 15.463,0.998 L19.246,4.843 C19.591,5.194 19.591,5.762 19.246,6.112 ZM16.113,9.299 L8.520,17.017 L3.489,11.902 L11.082,4.183 L16.113,9.299 ZM1.877,19.792 C1.560,19.899 1.210,19.815 0.975,19.575 C0.738,19.336 0.656,18.979 0.762,18.657 L2.480,13.414 L7.035,18.044 L1.877,19.792 Z"/>
</svg>
