<?xml version="1.0" encoding="utf-8"?>
<!-- Generator: Adobe Illustrator 19.0.0, SVG Export Plug-In . SVG Version: 6.00 Build 0)  -->
<svg version="1.1" xmlns="http://www.w3.org/2000/svg" xmlns:xlink="http://www.w3.org/1999/xlink" x="0px"
	 y="0px" viewBox="0 0 64 64" style="enable-background:new 0 0 64 64;" xml:space="preserve">

	<path id="XMLID_10_" class="st0" d="M42.7,21c-0.9-1-2.2-1.5-3.6-1.5c-1.3,0-2.6,0.5-3.6,1.5L21.3,35.2c0,0,0,0,0,0
		c-0.1,0.1-0.3,0.4-0.3,0.6l-1.8,7.1c-0.1,0.4,0,0.9,0.3,1.2l0,0l0,0c0.3,0.3,0.8,0.4,1.2,0.3l7.1-1.8c0.2-0.1,0.5-0.2,0.6-0.3
		c0,0,0,0,0,0l14.3-14.3c1-1,1.5-2.2,1.5-3.6C44.2,23.2,43.7,21.9,42.7,21L42.7,21z M34.7,25.4l3.6,3.6L27.6,39.7L24,36.1L34.7,25.4
		z M22.2,41.5l0.7-3l2.2,2.2L22.2,41.5z M41,22.7c1,1,1,2.6,0,3.6l-0.9,0.9l-3.6-3.6l0.9-0.9C38.3,21.8,40,21.8,41,22.7z"/>
		<path id="XMLID_4_" class="st0" d="M32,0C14.3,0,0,14.3,0,32c0,17.7,14.3,32,32,32c17.7,0,32-14.3,32-32C64,14.3,49.7,0,32,0z
			 M32,60C16.5,60,4,47.5,4,32S16.5,4,32,4s28,12.5,28,28S47.5,60,32,60z"/>

</svg>
