<?xml version="1.0" encoding="utf-8"?>
<!-- Generator: Adobe Illustrator 19.0.0, SVG Export Plug-In . SVG Version: 6.00 Build 0)  -->
<svg version="1.1" id="Isolation_Mode" xmlns="http://www.w3.org/2000/svg" xmlns:xlink="http://www.w3.org/1999/xlink" x="0px"
	 y="0px" viewBox="-35 51.8 72 53" style="enable-background:new -35 51.8 72 53;" xml:space="preserve">
<path class="st0" d="M37,60.8c0-5-4-9-9-9h-54c-5,0-9,4-9,9v35c0,5,4,9,9,9h54c5,0,9-4,9-9V60.8z M28,57.8c0.7,0,1.5,0.3,2,0.8
	L1.5,78.2L-28,58.5c0.6-0.5,1.3-0.8,2-0.8H28z M28,98.8h-54c-1.7,0-3-1.3-3-3V65l28.8,19.2c1,0.7,2.3,0.7,3.4,0L31,65.1v30.6
	C31,97.4,29.7,98.8,28,98.8z"/>
</svg>
