<?xml version="1.0" encoding="utf-8"?>
<!-- Generator: Adobe Illustrator 19.0.0, SVG Export Plug-In . SVG Version: 6.00 Build 0)  -->
<svg version="1.1" id="Layer_1" xmlns="http://www.w3.org/2000/svg" xmlns:xlink="http://www.w3.org/1999/xlink" x="0px" y="0px"
	 viewBox="0 0 20 17.7" style="enable-background:new 0 0 20 17.7;" xml:space="preserve">
<path d="M19.9,8.4c-0.2-0.2-4.5-5.1-9.9-5.1S0.3,8.2,0.1,8.4C0,8.7,0,9,0.1,9.3c0.2,0.2,4.5,5.1,9.9,5.1
	s9.7-4.9,9.9-5.1C20.1,9,20.1,8.7,19.9,8.4z M10,13.1c-2.3,0-4.1-1.9-4.1-4.3c0-2.4,1.8-4.3,4.1-4.3c2.3,0,4.1,1.9,4.1,4.3
	C14.1,11.2,12.3,13.1,10,13.1z"/>
<path d="M10.6,7.6c0-0.6,0.3-1.2,0.7-1.5c-0.4-0.2-0.8-0.3-1.3-0.3c-1.6,0-2.9,1.4-2.9,3.1c0,1.7,1.3,3.1,2.9,3.1
	c1.4,0,2.6-1.1,2.9-2.5C11.7,9.8,10.6,8.8,10.6,7.6z"/>
<path d="M2.4,17.7L1.7,17l17-17l0.7,0.7L2.4,17.7z"/>
</svg>
