<?xml version="1.0" encoding="utf-8"?>
<!-- Generator: Adobe Illustrator 19.0.0, SVG Export Plug-In . SVG Version: 6.00 Build 0)  -->
<svg version="1.1" id="Layer_1" xmlns="http://www.w3.org/2000/svg" xmlns:xlink="http://www.w3.org/1999/xlink" x="0px" y="0px"
	 viewBox="0 0 20 11" style="enable-background:new 0 0 20 11;" xml:space="preserve">
<path d="M19.9,5.1C19.7,4.9,15.4,0,10,0S0.3,4.9,0.1,5.1C0,5.3,0,5.7,0.1,5.9C0.3,6.1,4.6,11,10,11
	c5.4,0,9.7-4.9,9.9-5.1C20.1,5.7,20.1,5.3,19.9,5.1z M10,9.8c-2.3,0-4.1-1.9-4.1-4.3c0-2.4,1.8-4.3,4.1-4.3s4.1,1.9,4.1,4.3
	C14.1,7.9,12.3,9.8,10,9.8z"/>
<path d="M10.6,4.3c0-0.6,0.3-1.2,0.7-1.5c-0.4-0.2-0.8-0.3-1.3-0.3c-1.6,0-2.9,1.4-2.9,3.1c0,1.7,1.3,3.1,2.9,3.1
	c1.4,0,2.6-1.1,2.9-2.5C11.7,6.4,10.6,5.5,10.6,4.3z"/>
</svg>
