<?xml version="1.0" encoding="utf-8"?>
<!-- Generator: Adobe Illustrator 19.0.0, SVG Export Plug-In . SVG Version: 6.00 Build 0)  -->
<svg version="1.1" id="Layer_1" xmlns="http://www.w3.org/2000/svg" xmlns:xlink="http://www.w3.org/1999/xlink" x="0px" y="0px"
	 viewBox="0 0 5.7 5.9" style="enable-background:new 0 0 5.7 5.9;" xml:space="preserve">
<path d="M5.7,2.6H3.1v0.9h1.6c-0.2,0.8-1,1.4-1.8,1.4C1.8,4.9,1,4,1,2.9c0-1.1,0.9-2,1.9-2c0.5,0,1,0.2,1.4,0.6l0.6-0.7
	C4.4,0.3,3.6,0,2.9,0C1.3,0,0,1.3,0,2.9c0,1.6,1.3,2.9,2.9,2.9c1.4,0,2.6-1,2.9-2.3L5.7,2.6L5.7,2.6L5.7,2.6z"/>
</svg>
