<?xml version="1.0" encoding="utf-8"?>
<!-- Generator: Adobe Illustrator 19.0.0, SVG Export Plug-In . SVG Version: 6.00 Build 0)  -->
<svg version="1.1" id="Layer_1" xmlns="http://www.w3.org/2000/svg" xmlns:xlink="http://www.w3.org/1999/xlink" x="0px" y="0px"
	 viewBox="0 0 20 17" style="enable-background:new 0 0 20 17;" xml:space="preserve">
		<path id="SVGID_1_" d="M19.7,2.3l-2-2l-1.4,1.4L18,3.4v7C17.3,9.5,16.2,9,15,9c-1.9,0-3.4,1.3-3.9,3H8.9c-0.4-1.7-2-3-3.9-3
			c-1.2,0-2.3,0.5-3,1.4v-7l1.7-1.7L2.3,0.3l-2,2C0.1,2.5,0,2.7,0,3v10c0,0.5,0.4,1,1.1,1c0.4,1.7,2,3,3.9,3s3.4-1.3,3.9-3h2.3
			c0.4,1.7,2,3,3.9,3s3.4-1.3,3.9-3c0.8,0,1.1-0.5,1.1-1V3C20,2.7,19.9,2.5,19.7,2.3 M5,15c-1.1,0-2-0.9-2-2s0.9-2,2-2s2,0.9,2,2
			S6.1,15,5,15 M15,15c-1.1,0-2-0.9-2-2s0.9-2,2-2s2,0.9,2,2S16.1,15,15,15"/>
</svg>
