<svg xmlns="http://www.w3.org/2000/svg" width="400" height="400" viewBox="0 0 400 400"><path d="M138.858 11.738c-48.51 16.6-89.846 52.9-112.87 98.84-8.03 15.85-13.814 32.663-17.347 50.118-8.78 43.264-2.67 89.417 17.24 128.824 12.96 25.707 31.6 48.62 54.08 66.507 21.31 16.92 46.05 29.556 72.39 36.516 33.2 8.89 68.54 8.674 101.95 1.07 30.2-6.96 58.79-21.416 81.6-42.405 24.1-22.167 41.34-51.295 50.44-82.67 9.96-34.162 11.247-70.678 5.036-105.803h-187.4v77.747H312.56c-4.178 24.844-18.956 47.547-39.838 61.575-13.17 8.89-28.27 14.565-43.903 17.35-15.637 2.676-31.91 3-47.55-.108-15.955-3.217-31.054-9.85-44.333-19.17-21.204-14.888-37.374-36.627-45.62-61.15-8.46-24.95-8.566-52.687 0-77.53 5.997-17.563 15.85-33.733 28.914-47.01 16.065-16.49 36.947-28.27 59.54-33.09 19.278-4.07 39.624-3.32 58.47 2.355 16.064 4.82 30.84 13.708 42.94 25.273l36.62-36.63c6.427-6.533 13.17-12.85 19.384-19.598-18.526-17.133-40.37-30.948-64.144-39.73-42.835-15.848-91.024-16.17-134.18-1.284z" /><path d="M138.858 11.738c43.05-14.885 91.345-14.564 134.18 1.178 23.773 8.78 45.51 22.488 64.144 39.73-6.21 6.746-12.957 13.064-19.382 19.596l-36.624 36.624c-12.1-11.566-26.88-20.347-42.942-25.273-18.847-5.675-39.193-6.532-58.47-2.356-22.487 4.82-43.37 16.6-59.54 33.09-13.064 13.172-22.916 29.45-28.913 47.01-21.73-16.918-43.47-33.73-65.32-50.65 23.03-46.048 64.36-82.35 112.87-98.95zM8.748 160.588c3.533-17.347 9.316-34.267 17.348-50.116 21.738 16.92 43.477 33.732 65.323 50.652-8.57 24.95-8.57 52.687 0 77.53-21.74 16.92-43.48 33.84-65.22 50.653C6.07 250.007-.04 203.852 8.75 160.59zm195.22 2.035h187.4c6.21 35.018 4.82 71.534-5.033 105.802-9.102 31.376-26.343 60.504-50.438 82.67l-63.288-49.152c20.88-14.028 35.66-36.73 39.83-61.575H203.86c.107-25.915.107-51.83.107-77.745z"/><path d="M25.99 289.414c21.737-16.813 43.476-33.732 65.214-50.652 8.353 24.523 24.416 46.26 45.62 61.146 13.278 9.317 28.484 15.956 44.333 19.17 15.635 3.212 31.805 2.783 47.547.106 15.634-2.784 30.734-8.46 43.905-17.348l63.28 49.153c-22.81 21.09-51.4 35.44-81.6 42.4-33.41 7.6-68.75 7.813-101.948-1.07-26.343-6.96-51.08-19.49-72.39-36.52-22.38-17.778-41.015-40.694-53.97-66.395z"/></svg>
