<?xml version="1.0" encoding="utf-8"?>
<svg version="1.1" id="Layer_1" xmlns="http://www.w3.org/2000/svg" xmlns:xlink="http://www.w3.org/1999/xlink" x="0px" y="0px"
	 viewBox="0 0 24 24" xml:space="preserve">
  <path d="M19,14c0.054,0,0.105,0.007,0.158,0.008C19.696,12.78,20,11.427,20,10c0-4.1-2.47-7.619-6-9.162V4h-3v3h3
    v3l-3,1l-2,5l-5-3V7l3-2V0.459C2.943,1.734,0,5.523,0,10c0,5.523,4.477,10,10,10c1.054,0,2.069-0.166,3.023-0.468
    C13.263,16.438,15.845,14,19,14z"/>
  <polygon points="22.293,16.293 18,20.586 15.707,18.293 14.293,19.706 18,23.414 23.707,17.706"/>
</svg>
