<?xml version="1.0" encoding="utf-8"?>
<!-- Generator: Adobe Illustrator 19.0.0, SVG Export Plug-In . SVG Version: 6.00 Build 0)  -->
<svg version="1.1" id="Layer_1" xmlns="http://www.w3.org/2000/svg" xmlns:xlink="http://www.w3.org/1999/xlink" x="0px" y="0px"
	 viewBox="0 0 20 17" style="enable-background:new 0 0 20 17;" xml:space="preserve">
<path id="SVGID_1_" d="M18,0v1.2L2,4.8V4H0v8h2v-0.8l1,0.2V15c0,0.5,0.3,0.9,0.8,1l4,1c0.1,0,0.2,0,0.2,0c0.3,0,0.6-0.1,0.8-0.4
			l2.5-3.3l6.7,1.5V16h2V0H18z M7.6,14.9L5,14.2v-2.3l4.1,0.9L7.6,14.9z M2,9.2V6.8l16-3.6v9.5L2,9.2z"/>
<polygon id="SVGID_3_" points="15.9,5 14,6.9 12.1,5 11,6.1 12.9,8 11,9.9 12.1,11 14,9.1 15.9,11 17,9.9 15.1,8 17,6.1 		"/>
</svg>
