<?xml version="1.0" encoding="utf-8"?>
<!-- Generator: Adobe Illustrator 19.0.0, SVG Export Plug-In . SVG Version: 6.00 Build 0)  -->
<svg version="1.1" id="Layer_1" xmlns="http://www.w3.org/2000/svg" xmlns:xlink="http://www.w3.org/1999/xlink" x="0px" y="0px"
	 viewBox="0 0 16 21" style="enable-background:new 0 0 16 21;" xml:space="preserve">
<path id="SVGID_1_" d="M8,0C3.6,0,0,3.6,0,8c0,4.4,4.6,9.4,8,12.3c3.4-2.9,8-7.9,8-12.3S12.4,0,8,0 M8,17.7c-2.1-2-6-6.3-6-9.7
			c0-3.3,2.7-6,6-6s6,2.7,6,6C14,11.3,10.1,15.7,8,17.7"/>
<polygon id="SVGID_3_" points="10.3,4.3 8,6.6 5.7,4.3 4.3,5.7 6.6,8 4.3,10.3 5.7,11.7 8,9.4 10.3,11.7 11.7,10.3 9.4,8 11.7,5.7"/>
</svg>
