<?xml version="1.0" encoding="UTF-8"?>
<svg width="21px" height="20px" viewBox="0 0 21 20" version="1.1" xmlns="http://www.w3.org/2000/svg" xmlns:xlink="http://www.w3.org/1999/xlink">
    <defs></defs>
    <g id="Page-1" stroke="none" stroke-width="1">
        <g id="Icons" transform="translate(-1550.000000, -2430.000000)">
            <g id="Group" transform="translate(1550.000000, 2430.000000)">
                <polygon id="Fill-3049" points="13.8867 8.0464 12.7357 6.1994 10.9997 9.0004 17.9997 9.0004 15.6467 5.2254"></polygon>
                <path d="M6,3.0017 L4,3.0017 L4,14.0017 C4,15.1037 4.897,16.0017 6,16.0017 L16,16.0017 L16,14.0017 L6,14.0017 L6,3.0017 Z" id="Fill-3050"></path>
                <path d="M2,7.0017 L0,7.0017 L0,18.0017 C0,19.1037 0.897,20.0017 2,20.0017 L12,20.0017 L12,18.0017 L2,18.0017 L2,7.0017 Z" id="Fill-3051"></path>
                <path d="M10,10.0017 L10,2.0017 L19,2.0017 L19.002,10.0017 L10,10.0017 Z M19,0.0017 L10,0.0017 C8.897,0.0017 8,0.8987 8,2.0017 L8,10.0017 C8,11.1037 8.897,12.0017 10,12.0017 L19,12.0017 C20.103,12.0017 21,11.1037 21,10.0017 L21,2.0017 C21,0.8987 20.103,0.0017 19,0.0017 L19,0.0017 Z" id="Fill-3052"></path>
            </g>
        </g>
    </g>
</svg>
