<?xml version="1.0" encoding="utf-8"?>
<!-- Generator: Adobe Illustrator 19.0.0, SVG Export Plug-In . SVG Version: 6.00 Build 0)  -->
<svg version="1.1" id="Layer_1" xmlns="http://www.w3.org/2000/svg" xmlns:xlink="http://www.w3.org/1999/xlink" x="0px" y="0px"
	 viewBox="0 0 20 18" style="enable-background:new 0 0 20 18;" xml:space="preserve">
  <path d="M18,5h-4V3c0-0.6,0.4-1,1-1h2V0h-2c-0.8,0-1.5,0.3-2,0.8C12.5,0.3,11.8,0,11,0H9v2h2c0.6,0,1,0.4,1,1v2H2
    C0.9,5,0,5.9,0,7v4c0,1.1,0.9,2,2,2h10v2c0,0.6-0.4,1-1,1H9v2h2c0.8,0,1.5-0.3,2-0.8c0.5,0.5,1.2,0.8,2,0.8h2v-2h-2
    c-0.6,0-1-0.4-1-1v-2h4c1.1,0,2-0.9,2-2V7C20,5.9,19.1,5,18,5z M2,7h10v4H2V7z M18,11h-4V7h4L18,11z"/>
</svg>
