<?xml version="1.0" encoding="UTF-8"?>
<svg width="22px" height="24px" viewBox="0 0 22 24" version="1.1" xmlns="http://www.w3.org/2000/svg" xmlns:xlink="http://www.w3.org/1999/xlink">
    <defs></defs>
    <g id="Page-1" stroke="none" stroke-width="1">
        <g id="Group">
            <path d="M2,9 L2,2 L6,2 L6,4 L8,4 L8.001,9 L2,9 Z M8,0 L2,0 C0.897,0 0,0.898 0,2 L0,9 C0,10.103 0.897,11 2,11 L8,11 C9.103,11 10,10.103 10,9 L10,2 C10,0.898 9.103,0 8,0 L8,0 Z" id="Fill-33"></path>
            <path d="M14,9 L14,2 L18,2 L18,4 L20,4 L20.001,9 L14,9 Z M20,0 L14,0 C12.897,0 12,0.898 12,2 L12,9 C12,10.103 12.897,11 14,11 L20,11 C21.103,11 22,10.103 22,9 L22,2 C22,0.898 21.103,0 20,0 L20,0 Z" id="Fill-34"></path>
            <path d="M2,22 L2,15 L6,15 L6,17 L8,17 L8.001,22 L2,22 Z M8,13 L2,13 C0.897,13 0,13.898 0,15 L0,22 C0,23.103 0.897,24 2,24 L8,24 C9.103,24 10,23.103 10,22 L10,15 C10,13.898 9.103,13 8,13 L8,13 Z" id="Fill-35"></path>
            <path d="M14,22 L14,15 L18,15 L18,17 L20,17 L20.001,22 L14,22 Z M20,13 L14,13 C12.897,13 12,13.898 12,15 L12,22 C12,23.103 12.897,24 14,24 L20,24 C21.103,24 22,23.103 22,22 L22,15 C22,13.898 21.103,13 20,13 L20,13 Z" id="Fill-36"></path>
        </g>
    </g>
</svg>
