<?xml version="1.0" encoding="UTF-8"?>
<svg width="18px" height="22px" viewBox="0 0 18 22" version="1.1" xmlns="http://www.w3.org/2000/svg" xmlns:xlink="http://www.w3.org/1999/xlink">
    <defs></defs>
    <g id="Page-1" stroke="none" stroke-width="1">
        <g id="Fill-28-+-Fill-29">
            <path d="M16.0015,16 L6.0005,16 L6.0005,2 L12.0005,2 L12.0005,6 L16.0005,6 L16.0015,16 Z M13.4145,0 L6.0005,0 C4.8975,0 4.0005,0.898 4.0005,2 L4.0005,16 C4.0005,17.103 4.8975,18 6.0005,18 L16.0005,18 C17.1035,18 18.0005,17.103 18.0005,16 L18.0005,4.586 L13.4145,0 Z" id="Fill-28"></path>
            <path d="M2,4 L0,4 L0,20 C0,21.103 0.897,22 2,22 L14,22 L14,20 L2,20 L2,4 Z" id="Fill-29"></path>
        </g>
    </g>
</svg>
