<?xml version="1.0" encoding="utf-8"?>
<!-- Generator: Adobe Illustrator 19.0.0, SVG Export Plug-In . SVG Version: 6.00 Build 0)  -->
<svg version="1.1" id="Layer_1" xmlns="http://www.w3.org/2000/svg" xmlns:xlink="http://www.w3.org/1999/xlink" x="0px" y="0px"
	 viewBox="0 0 21 21" style="enable-background:new 0 0 21 21;" xml:space="preserve">
<path d="M1.6,14.3L3,12.9l-0.7-0.7c-0.4-0.4-0.4-1,0-1.4l8.5-8.5C11,2.1,11.2,2,11.5,2c0.3,0,0.5,0.1,0.7,0.3
	L12.9,3l1.4-1.4l-0.7-0.7c-1.1-1.1-3.1-1.1-4.2,0L0.9,9.3c-1.2,1.2-1.2,3.1,0,4.2L1.6,14.3z"/>
<path d="M19.3,6.5l-0.7-0.7l-1.4,1.4l0.7,0.7c0.2,0.2,0.3,0.4,0.3,0.7c0,0.3-0.1,0.5-0.3,0.7l-8.5,8.5
	c-0.4,0.4-1,0.4-1.4,0l-0.7-0.7l-1.4,1.4l0.7,0.7c0.6,0.6,1.3,0.9,2.1,0.9c0.8,0,1.6-0.3,2.1-0.9l8.5-8.5c0.6-0.6,0.9-1.3,0.9-2.1
	C20.1,7.8,19.8,7.1,19.3,6.5"/>
<rect x="14" y="0.1" transform="matrix(0.7071 0.7071 -0.7071 0.7071 8.0002 -9.1287)" width="2" height="10"/>
<rect x="4.1" y="10" transform="matrix(0.7071 0.7071 -0.7071 0.7071 12.1003 0.7706)" width="2" height="10"/>
</svg>
