<?xml version="1.0" encoding="utf-8"?>
<!-- Generator: Adobe Illustrator 19.0.0, SVG Export Plug-In . SVG Version: 6.00 Build 0)  -->
<svg version="1.1" id="Layer_1" xmlns="http://www.w3.org/2000/svg" xmlns:xlink="http://www.w3.org/1999/xlink" x="0px" y="0px"
	 viewBox="0 0 16 21" style="enable-background:new 0 0 16 21;" xml:space="preserve">
	<path d="M9,3H7v1.1C5.9,4.3,5,5.3,5,6.5C5,7.9,6.1,9,7.5,9h1C8.8,9,9,9.2,9,9.5S8.8,10,8.5,10H5v2h2v1h2v-1.1
			c1.1-0.2,2-1.2,2-2.4C11,8.1,9.9,7,8.5,7h-1C7.2,7,7,6.8,7,6.5S7.2,6,7.5,6H11V4H9V3z"/>
	<path d="M8,0C3.6,0,0,3.6,0,8c0,4.4,4.6,9.4,8,12.3c3.4-2.9,8-7.9,8-12.3S12.4,0,8,0 M8,17.7c-2.1-2-6-6.3-6-9.7
			c0-3.3,2.7-6,6-6s6,2.7,6,6C14,11.3,10.1,15.7,8,17.7"/>
</svg>
