<?xml version="1.0" encoding="utf-8"?>
<!-- Generator: Adobe Illustrator 19.0.0, SVG Export Plug-In . SVG Version: 6.00 Build 0)  -->
<svg version="1.1" id="Layer_1" xmlns="http://www.w3.org/2000/svg" xmlns:xlink="http://www.w3.org/1999/xlink" x="0px" y="0px"
	 viewBox="0 0 21 21" style="enable-background:new 0 0 21 21;" xml:space="preserve">
  <path  d="M10,8h2V5.5l3-2.4V7h2V1c0-0.4-0.2-0.7-0.6-0.9c-0.3-0.2-0.8-0.1-1.1,0.1L11,3.7L6.6,0.2C6.4,0.1,6.2,0,6,0
    C5.8,0,5.5,0.1,5.4,0.2l-5,4C0.1,4.4,0,4.7,0,5v14c0,0.4,0.2,0.7,0.6,0.9C0.7,20,0.9,20,1,20c0.2,0,0.4-0.1,0.6-0.2l5-4
    C6.9,15.6,7,15.3,7,15V3.1l3,2.4V8z M2,5.5l3-2.4v11.4l-3,2.4V5.5z"/>
  <path id="SVGID_3_" d="M20.7,19.3l-2.5-2.5C18.7,16,19,15,19,14c0-2.8-2.2-5-5-5s-5,2.2-5,5s2.2,5,5,5c1,0,2-0.3,2.8-0.8l2.5,2.5
    L20.7,19.3z M14,17c-1.7,0-3-1.3-3-3s1.3-3,3-3s3,1.3,3,3S15.7,17,14,17z"/>
</svg>
