<?xml version="1.0" encoding="utf-8"?>
<!-- Generator: Adobe Illustrator 19.0.0, SVG Export Plug-In . SVG Version: 6.00 Build 0)  -->
<svg version="1.1" xmlns="http://www.w3.org/2000/svg" xmlns:xlink="http://www.w3.org/1999/xlink" x="0px" y="0px"
	 viewBox="0 0 14 20" style="enable-background:new 0 0 14 20;" xml:space="preserve">
	<circle  cx="7" cy="14.5" r="1.5"/>
	<path d="M12,9V5c0-2.8-2.2-5-5-5S2,2.2,2,5v4c-1.1,0-2,0.9-2,2v7c0,1.1,0.9,2,2,2h10c1.1,0,2-0.9,2-2v-7
		C14,9.9,13.1,9,12,9z M4,5c0-1.7,1.3-3,3-3s3,1.3,3,3v4H4V5z M2,18v-7h10l0,7H2z"/>
</svg>
