<?xml version="1.0" encoding="utf-8"?>
<!-- Generator: Adobe Illustrator 19.0.0, SVG Export Plug-In . SVG Version: 6.00 Build 0)  -->
<svg version="1.1" id="Layer_1" xmlns="http://www.w3.org/2000/svg" xmlns:xlink="http://www.w3.org/1999/xlink" x="0px" y="0px"
	 viewBox="0 0 22 22" style="enable-background:new 0 0 22 22;" xml:space="preserve">
  <path d="M18.6,17.8c0.3-0.2,0.4-0.5,0.4-0.8v-3h-2v2.5l-4,2.7V7c0-0.3-0.1-0.6-0.4-0.8l-5-4C7.5,2.1,7.3,2,7,2
    C6.8,2,6.6,2.1,6.4,2.2l-6,4C0.2,6.4,0,6.7,0,7v14c0,0.4,0.2,0.7,0.5,0.9C0.7,22,0.8,22,1,22c0.2,0,0.4-0.1,0.6-0.2l5.4-3.6
    l4.4,3.5c0.2,0.1,0.4,0.2,0.6,0.2c0.3,0,0.4-0.1,0.5-0.2L18.6,17.8z M2,7.5l4-2.7v11.6l-4,2.7V7.5z M11,18.9l-3-2.4V5.1l3,2.4
    V18.9z"/>
		<path d="M18,12.7l0.8-1.1C18.9,11.4,22,7.3,22,4c0-2.2-1.8-4-4-4s-4,1.8-4,4c0,3.3,3.1,7.4,3.2,7.6L18,12.7z M18,2
			c1.1,0,2,0.9,2,2c0,1.6-1.1,3.8-2,5.2c-0.9-1.4-2-3.6-2-5.2C16,2.9,16.9,2,18,2z"/>
		<path d="M19,4c0-0.6-0.4-1-1-1c-0.6,0-1,0.4-1,1c0,0.6,0.4,1,1,1C18.6,5,19,4.6,19,4"/>
</svg>
