<?xml version="1.0" encoding="utf-8"?>
<!-- Generator: Adobe Illustrator 19.0.0, SVG Export Plug-In . SVG Version: 6.00 Build 0)  -->
<svg version="1.1" id="lifestyle" xmlns="http://www.w3.org/2000/svg" xmlns:xlink="http://www.w3.org/1999/xlink" x="0px" y="0px"
	 viewBox="0 0 40 64" style="enable-background:new 0 0 40 64;" xml:space="preserve">
<g>
	<path d="M25,8C25,8,25,8,25,8H15c0,0,0,0,0,0c-1.1,0-2,0.9-2,2s0.9,2,2,2h10c1.1,0,2-0.9,2-2S26.1,8,25,8z"/>
	<path d="M34,0H6C2.7,0,0,2.7,0,6v52c0,3.3,2.7,6,6,6h28c3.3,0,6-2.7,6-6V6C40,2.7,37.3,0,34,0z M36,58c0,1.1-0.9,2-2,2H6
		c-1.1,0-2-0.9-2-2V6c0-1.1,0.9-2,2-2h28c1.1,0,2,0.9,2,2V58z"/>
	<circle cx="20" cy="53" r="3"/>
</g>
</svg>
