<?xml version="1.0" encoding="utf-8"?>
<!-- Generator: Adobe Illustrator 19.0.0, SVG Export Plug-In . SVG Version: 6.00 Build 0)  -->
<svg version="1.1" id="lifestyle" xmlns="http://www.w3.org/2000/svg" xmlns:xlink="http://www.w3.org/1999/xlink" x="0px" y="0px"
	 viewBox="0 0 64 54" style="enable-background:new 0 0 64 54;" xml:space="preserve">
<path d="M58,0H6C2.7,0,0,2.7,0,6v32c0,3.3,2.7,6,6,6h24v6h-9c-1.1,0-2,0.9-2,2s0.9,2,2,2c0,0,0,0,0,0h22c0,0,0,0,0,0
	c1.1,0,2-0.9,2-2s-0.9-2-2-2h-9c0,0,0,0,0,0v-6c0,0,0,0,0,0h24c3.3,0,6-2.7,6-6V6C64,2.7,61.3,0,58,0z M60,38c0,1.1-0.9,2-2,2H6
	c-1.1,0-2-0.9-2-2V6c0-1.1,0.9-2,2-2h52c1.1,0,2,0.9,2,2V38z"/>
</svg>
