<?xml version="1.0" encoding="utf-8"?>
<!-- Generator: Adobe Illustrator 19.0.0, SVG Export Plug-In . SVG Version: 6.00 Build 0)  -->
<svg version="1.1" id="Layer_1" xmlns="http://www.w3.org/2000/svg" xmlns:xlink="http://www.w3.org/1999/xlink" x="0px" y="0px"
	 viewBox="0 0 22 20" style="enable-background:new 0 0 22 20;" xml:space="preserve">
	<polygon points="9,13 15,10 9,7 		"/>
	<path d="M20,0H2C0.9,0,0,0.9,0,2v16c0,1.1,0.9,2,2,2h18c1.1,0,2-0.9,2-2V2C22,0.9,21.1,0,20,0z M2,18V2h18l0,16H2z"/>
	<rect x="4" y="3" width="2" height="2"/>
	<rect x="8" y="3" width="2" height="2"/>
	<rect x="12" y="3" width="2" height="2"/>
	<rect x="16" y="3" width="2" height="2"/>
	<rect x="4" y="15" width="2" height="2"/>
	<rect x="8" y="15" width="2" height="2"/>
	<rect x="12" y="15" width="2" height="2"/>
	<rect x="16" y="15" width="2" height="2"/>
</svg>
