<?xml version="1.0" encoding="utf-8"?>
<!-- Generator: Adobe Illustrator 19.0.0, SVG Export Plug-In . SVG Version: 6.00 Build 0)  -->
<svg version="1.1" id="Layer_1" xmlns="http://www.w3.org/2000/svg" xmlns:xlink="http://www.w3.org/1999/xlink" x="0px" y="0px"
	 viewBox="0 0 20 22" style="enable-background:new 0 0 20 22;" xml:space="preserve">
<path d="M3,2h10v4h4v1h2V4.6L14.4,0H3C1.9,0,1,0.9,1,2v5h2V2z"/>
<path d="M17,20H3v-1H1v1c0,1.1,0.9,2,2,2h14c1.1,0,2-0.9,2-2v-1h-2V20z"/>
<path d="M7,9v8h2c2.2,0,4-1.8,4-4s-1.8-4-4-4H7z M11,13c0,1.1-0.9,2-2,2v-4C10.1,11,11,11.9,11,13z"/>
<path d="M20,11V9h-4c-1.1,0-2,0.9-2,2v6h2v-3h3v-2h-3v-1H20z"/>
<path d="M2,15h1c1.7,0,3-1.3,3-3S4.7,9,3,9H0v8h2V15z M2,11h1c0.6,0,1,0.4,1,1c0,0.6-0.4,1-1,1H2V11z"/>
</svg>
