<svg viewBox="0 0 400 400" xmlns="http://www.w3.org/2000/svg">
  <g fill-rule="evenodd">
    <path
      d="M34.4.6c0 .4-.7.6-3.1.7-3 .1-3.1.1-3.2 1.2-.1 1-.3 1-2.2 1.2-1.8 0-2.1.2-2.2 1-.1.6-.4.9-1.1.9-1.4 0-3 .8-3.2 1.7-.2.4-.6.7-1.2.7-.7 0-1 .3-1.2 1-.2.6-.6 1-1 1-.8 0-1.6.8-1.6 1.7 0 .5-.3.7-1 .7-.8 0-1 .2-1 1 0 .7-.2 1-.7 1-1 0-1.7.8-1.7 1.6 0 .4-.4.8-1 1-.7.1-1 .5-1 1.2 0 .6-.3 1-.7 1.2-.9.3-1.7 1.8-1.7 3.2 0 .7-.3 1-.9 1-.8.2-1 .5-1 2.3-.1 1.9-.2 2-1.2 2.2-1 .1-1.1.2-1.2 3.2-.1 2.4-.3 3.1-.7 3.1C0 34.4 0 55.2 0 200c0 147 0 165.6.6 165.6.5 0 .6.6.6 3 0 3 0 3 1.2 3.5 1 .4 1.2.7 1.2 2.2 0 1.4.2 1.8.9 2 .6.3 1 1 1.3 2.1.3 1.2.7 2 1.3 2.2.5.2 1 .8 1 1.4 0 .7.4 1 1 1.1.5.1.9.5 1 1.3.2 1 .5 1.2 1.3 1.2s1 .2 1 1 .2 1 1 1c.7 0 1 .3 1.1 1.2.2 1 .5 1.2 1.3 1.2.7 0 1 .2 1 .8 0 .5.4 1 1.1 1.3.6.2 1.4.8 1.7 1.2.4.4 1.4.9 2.3 1 1.3.2 1.7.4 1.7 1 0 .8 1.4 1.5 3.2 1.5 1 0 1.2.2 1.2 1 0 1 0 1 3.2 1 2.6 0 3.2.1 3.2.6s18.7.6 165.6.6 165.6 0 165.6-.6c0-.5.6-.6 3.2-.6 3 0 3.1 0 3.4-1 .1-.7.5-1 2.2-1.2 1.6-.2 2-.4 2-1 .2-.8.6-1 1.8-1.3.9-.2 1.9-.7 2.2-1 .4-.5 1.2-1 1.7-1.1.8-.2 1.1-.5 1.1-1.2s.3-1 1.1-1c.9-.2 1.1-.4 1.2-1.3.1-.9.4-1.1 1.1-1.1.8 0 1-.2 1-1 0-.7.2-1 1.1-1 .9-.2 1.1-.4 1.2-1.3.1-.8.4-1.1 1-1.1.8 0 1-.3 1.3-1 .1-.6.6-1.4 1-1.8.4-.3 1-1.3 1.1-2.2.3-1.2.5-1.6 1.2-1.7.7-.1 1-.5 1.1-2.1.3-1.7.5-2 1.3-2.2.8-.3.9-.5.9-3.4 0-2.6.1-3.2.6-3.2s.6-18.7.6-165.6 0-165.6-.6-165.6c-.5 0-.6-.6-.6-3.2 0-3.1 0-3.2-1-3.2-.8 0-1-.2-1-1.2 0-1.8-.7-3.2-1.5-3.2-.6 0-.8-.4-1-1.7-.1-.9-.6-2-1-2.3-.4-.3-1-1-1.2-1.7-.3-.7-.8-1.1-1.3-1.1-.6 0-.8-.3-.8-1 0-.8-.2-1-1.2-1.3-1-.1-1.2-.4-1.2-1.1 0-.8-.2-1-1-1s-1-.2-1-1-.2-1-1.2-1.3c-.8-.1-1.2-.5-1.3-1 0-.6-.4-1-1.1-1-.6 0-1.2-.5-1.4-1-.3-.6-1-1-2.2-1.3-1.2-.3-1.8-.7-2-1.3-.3-.7-.7-.9-2.1-.9-1.5 0-1.8-.1-2.2-1.2-.4-1.2-.5-1.2-3.5-1.2-2.4 0-3-.1-3-.6S346.9 0 200 0C55.2 0 34.4 0 34.4.6m203.4 69.6a68 68 0 0 1 11.4 3.2c.8.2 2.2.7 3.2 1.2l4.6 2.2a78.3 78.3 0 0 1 35.2 36.2c.6.8 1 1.6 1 2s.5 1.5 1.1 2.6c.7 1.2 1.3 2.8 1.5 3.5.2.8.6 2 1 2.6.4.7.9 2 1 3 .2 1 .6 2.6 1 3.5s1.1 3.4 1.4 5.3c.3 2 .9 4.3 1.2 5.3 2.2 6.3 2.1 39.3-.2 45.4-.4 1.1-.8 3.2-1 4.6-.1 1.4-.7 3.6-1.2 4.8s-1 3-1.2 3.8-.7 2.5-1.2 3.6c-.6 1.2-1 2.3-1 2.6 0 .3-.4 1.3-1 2.2-.5.9-1 2.1-1.2 2.8s-.7 1.7-1.2 2.4c-.6.7-1 1.5-1 1.9 0 .3-.4 1-.8 1.6-.5.6-1 1.6-1.3 2.3-.2.7-.5 1.2-.7 1.2s-.8.8-1.2 1.7-1.4 2.3-2 3l-1.8 2.3a84.9 84.9 0 0 1-26.3 22.2c-.8.2-1.6.7-1.9 1-.2.3-1 .7-1.7.8-.7.2-1.9.6-2.6 1-.7.4-2.4 1-3.8 1.4l-3.6 1.3c-.6.3-3 .9-5.2 1.3l-5.9 1.2a83.9 83.9 0 0 1-36.8-3.5c-1-.3-2.3-.8-3-1.2a65.6 65.6 0 0 0-4.2-2.1 30 30 0 0 0-2.3-1.2c-1-.5-1.7-1-1.7-1.2 0-.2-.6-.7-1.3-1-1.2-.7-1.8-1-5.1-4-2.5-2-2.4-4-2.4 40.7V324l-.9.2c-.5.1-11.4.2-24.3.1l-23.4-.1-.2-98.5-.2-98.6-1.2-1c-2-1.6-2.7-1.7-13.7-1.7-7.8 0-10.9-.1-11.2-.5-.8-.8-.7-47.2 0-47.9 1.3-1 52.4-.4 55.3.7 1.3.4 3 1 3.6 1 .7.2 1.8.8 2.5 1.3.7.6 1.4 1 1.6 1 .6 0 5.3 5.3 5.3 5.8 0 1 2.1 4.6 2.8 4.8.5.2 1.6-.6 4-2.9a88.5 88.5 0 0 1 9.2-7.7 30.2 30.2 0 0 1 5.8-3.6c1.6-.8 3.2-1.7 3.5-2s1.6-.6 2.9-1 2.8-1 3.2-1.3c.5-.3 2.2-.8 3.9-1l4.1-1.1a92.4 92.4 0 0 1 29.6.2m-29.2 43.4c-1.3.2-3.3.7-4.3 1.1l-2.5.9a37.8 37.8 0 0 0-15.1 10.4l-2.1 2.8c-.8 1-1.7 2.4-2 3.2l-1 2c-1.4 2-3.6 7.7-3.8 9.8l-1 4.2a79.7 79.7 0 0 0 3.2 40c.3 1 .7 2 1 2.4.3.3 1.2 2 2.1 3.6 2.3 4.4 10.2 12.8 12 12.8.2 0 .8.4 1.3 1 .5.5 1.5 1 2.2 1.2.6.2 1.6.5 2 .8.6.4 2 .9 3 1.2l4.6 1.2a40.1 40.1 0 0 0 27-4.9 51.5 51.5 0 0 0 12.4-11.8c.6-.7 1.6-2.6 2.3-4.1l2.3-4.6c.5-1 1-2.6 1.2-3.6.1-1 .7-3.2 1.3-5 1.5-4.5 1.6-25.6.2-29.5-.5-1.3-1-3.5-1.3-4.8-.3-1.4-.9-3.3-1.4-4.3-.6-1-1-2-1-2.3 0-.7-2.7-5.7-3.6-6.7a48.8 48.8 0 0 0-9-10.2c-.3 0-1.2-.5-2.1-1.2a24 24 0 0 0-7-3.6 47.3 47.3 0 0 0-21-2"
    />
  </g>
</svg>
