<?xml version="1.0" encoding="utf-8"?>
<!-- Generator: Adobe Illustrator 19.0.0, SVG Export Plug-In . SVG Version: 6.00 Build 0)  -->
<svg version="1.1" id="Isolation_Mode" xmlns="http://www.w3.org/2000/svg" xmlns:xlink="http://www.w3.org/1999/xlink" x="0px"
	 y="0px" viewBox="0 0 64 64" style="enable-background:new 0 0 64 64;" xml:space="preserve">
<g id="XMLID_3_">
	<path id="XMLID_2_" class="st0" d="M43,30C43,30,43,30,43,30h-9v-9l0,0l0,0c0-1.1-0.9-2-2-2c-1.1,0-2,0.9-2,2l0,0l0,0v9h-9
		c0,0,0,0,0,0c-1.1,0-2,0.9-2,2c0,1.1,0.9,2,2,2l0,0h9v9l0,0c0,1.1,0.9,2,2,2c1.1,0,2-0.9,2-2l0,0v-9h9l0,0c1.1,0,2-0.9,2-2
		C45,30.9,44.1,30,43,30z"/>
</g>
</svg>
