<?xml version="1.0" encoding="utf-8"?>
<svg version="1.1" id="Layer_1" xmlns="http://www.w3.org/2000/svg" xmlns:xlink="http://www.w3.org/1999/xlink" x="0px" y="0px"
	 viewBox="0 0 24 24" style="enable-background:new 0 0 6.5 6.5;" xml:space="preserve">
  <circle cx="7" cy="10" r="2"/>
  <circle cx="12" cy="10" r="2"/>
  <path d="M20,5H4C2.897,5,2,5.897,2,7v6c0,1.103,0.897,2,2,2h8v-2H4V7h16l-0.002,5H22V7
    C22,5.897,21.103,5,20,5z"/>
  <path d="M16,17.586l-2-2L12.586,17l2.707,2.708C15.488,19.902,15.744,20,16,20s0.512-0.098,0.707-0.292
    L21.414,15L20,13.586L16,17.586z"/>
</svg>
