<?xml version="1.0" encoding="utf-8"?>
<svg version="1.1" id="Layer_1" xmlns="http://www.w3.org/2000/svg" xmlns:xlink="http://www.w3.org/1999/xlink" x="0px" y="0px"
	 viewBox="0 0 6.5 6.5" style="enable-background:new 0 0 6.5 6.5;" xml:space="preserve">
<path  d="M3.2,0C1.4,0,0,1.4,0,3.3s1.4,3.2,3.2,3.2s3.2-1.4,3.2-3.2S5.1,0,3.2,0z M3.5,5c0,0.1-0.1,0.1-0.1,0.1H3.1
	C3,5.2,3,5.1,3,5V4.7C3,4.6,3,4.6,3.1,4.6h0.3c0.1,0,0.1,0.1,0.1,0.1V5z M3.9,3.7C3.7,3.9,3.6,4,3.5,4.2c0,0.1-0.1,0.1-0.1,0.1H3.1
	C3,4.3,2.9,4.2,3,4.1C3,3.7,3.3,3.5,3.6,3.3C3.8,3,4,2.9,4,2.7c0-0.4-0.3-0.7-0.7-0.7S2.5,2.2,2.5,2.7c0,0,0,0.1,0,0.1
	c0,0.1,0,0.1-0.1,0.2L2.1,3C2,3,1.9,3,1.9,2.9c0-0.1,0-0.1,0-0.2c0-0.7,0.6-1.3,1.3-1.3c0.7,0,1.3,0.6,1.3,1.3
	C4.6,3.2,4.2,3.5,3.9,3.7z"/>
</svg>
