<?xml version="1.0" encoding="utf-8"?>
<svg version="1.1" id="Layer_1" xmlns="http://www.w3.org/2000/svg" xmlns:xlink="http://www.w3.org/1999/xlink"
   x="0px" y="0px" width="15px" height="15px"
	 viewBox="0 0 17 17" style="enable-background:new 0 0 17 17;" xml:space="preserve">
  <path d="M10.4,10.4c-0.9,0.9-2,1.3-3.2,1.3c-1.3,0-2.3-0.4-3.2-1.3c-0.9-0.9-1.3-2-1.3-3.2C2.6,5.9,3.1,4.9,4,4
  c0.9-0.9,2-1.3,3.2-1.3c1.3,0,2.3,0.4,3.2,1.3c0.9,0.9,1.3,2,1.3,3.2C11.8,8.5,11.3,9.5,10.4,10.4z M16.6,14.8l-3.5-3.5
  c0.8-1.2,1.3-2.6,1.3-4.1c0-1-0.2-1.9-0.6-2.8c-0.4-0.9-0.9-1.7-1.5-2.3c-0.6-0.6-1.4-1.2-2.3-1.5C9.1,0.2,8.2,0,7.2,0
  c-1,0-1.9,0.2-2.8,0.6C3.5,0.9,2.7,1.5,2.1,2.1C1.5,2.7,0.9,3.5,0.6,4.4C0.2,5.3,0,6.2,0,7.2c0,1,0.2,1.9,0.6,2.8
  c0.4,0.9,0.9,1.7,1.5,2.3c0.6,0.6,1.4,1.2,2.3,1.5c0.9,0.4,1.8,0.6,2.8,0.6c1.5,0,2.9-0.4,4.1-1.3l3.5,3.5
  c0.2,0.3,0.6,0.4,0.9,0.4c0.4,0,0.7-0.1,0.9-0.4c0.3-0.3,0.4-0.6,0.4-0.9C17,15.3,16.9,15,16.6,14.8z"/>
</svg>
