<?xml version="1.0" encoding="utf-8"?>
<!-- Generator: Adobe Illustrator 19.0.0, SVG Export Plug-In . SVG Version: 6.00 Build 0)  -->
<svg version="1.1" id="Layer_1" xmlns="http://www.w3.org/2000/svg" xmlns:xlink="http://www.w3.org/1999/xlink" x="0px" y="0px"
	 viewBox="0 0 24 21" style="enable-background:new 0 0 24 21;" xml:space="preserve">
<path
 d="M17.039,14.000 L9.206,14.000 C8.127,14.000 7.248,13.103 7.248,12.000 L7.248,11.000 L9.206,11.000 L9.206,12.000 L17.039,12.000 L17.039,2.000 L9.206,2.000 L9.206,3.000 L7.248,3.000 L7.248,2.000 C7.248,0.897 8.127,-0.000 9.206,-0.000 L17.039,-0.000 C18.118,-0.000 18.997,0.897 18.997,2.000 L18.997,12.000 C18.997,13.103 18.118,14.000 17.039,14.000 ZM13.123,6.000 L13.123,8.000 L3.738,8.000 L5.982,10.293 L4.598,11.707 L-0.010,7.000 L4.598,2.293 L5.982,3.707 L3.738,6.000 L13.123,6.000 Z"/>
</svg>
