<?xml version="1.0" encoding="utf-8"?>
<!-- Generator: Adobe Illustrator 19.0.0, SVG Export Plug-In . SVG Version: 6.00 Build 0)  -->
<svg version="1.1" id="Layer_1" xmlns="http://www.w3.org/2000/svg" xmlns:xlink="http://www.w3.org/1999/xlink" x="0px" y="0px"
	 viewBox="0 0 22 22" style="enable-background:new 0 0 22 22;" xml:space="preserve">
  <path id="SVGID_1_" d="M21.7,10.3l-2.2-2.2C20.4,7.4,21,6.3,21,5c0-2.2-1.8-4-4-4c-1.2,0-2.4,0.6-3.1,1.5l-2.2-2.2
    C11.5,0.1,11.3,0,11,0c-0.3,0-0.5,0.1-0.7,0.3L7.4,3.2C7.2,3.4,7.1,3.6,7.1,3.9s0.1,0.5,0.3,0.7C7.8,5,8,5.5,8,6c0,1.1-0.9,2-2,2
    C5.5,8,5,7.8,4.6,7.4C4.2,7,3.6,7,3.2,7.4l-2.9,2.9C0.1,10.5,0,10.7,0,11c0,0.3,0.1,0.5,0.3,0.7l2.2,2.2C1.6,14.6,1,15.8,1,17
    c0,2.2,1.8,4,4,4c1.2,0,2.4-0.6,3.1-1.5l2.2,2.2c0.4,0.4,1,0.4,1.4,0l2.9-2.9c0.4-0.4,0.4-1,0-1.4C14.2,17,14,16.5,14,16
    c0-1.1,0.9-2,2-2c0.5,0,1,0.2,1.4,0.6c0.4,0.4,1,0.4,1.4,0l2.9-2.9C22.1,11.3,22.1,10.7,21.7,10.3z M19.6,11L18,12.6
    c-0.6-0.4-1.3-0.6-2-0.6c-2.2,0-4,1.8-4,4c0,0.7,0.2,1.4,0.6,2L11,19.6l-2.4-2.4c-0.2-0.2-0.6-0.3-1-0.3C7.3,17,7,17.2,6.9,17.6
    C6.6,18.4,5.9,19,5,19c-1.1,0-2-0.9-2-2c0-0.9,0.6-1.6,1.4-1.9C4.8,15,5,14.7,5.1,14.4c0.1-0.3,0-0.7-0.3-1L2.4,11L4,9.5
    C4.6,9.8,5.3,10,6,10c2.2,0,4-1.8,4-4c0-0.7-0.2-1.4-0.6-2L11,2.4l2.4,2.4c0.2,0.2,0.6,0.3,1,0.3C14.7,5,15,4.8,15.1,4.4
    C15.4,3.6,16.1,3,17,3c1.1,0,2,0.9,2,2c0,0.9-0.6,1.6-1.4,1.9C17.2,7,17,7.3,16.9,7.6c-0.1,0.3,0,0.7,0.3,1L19.6,11z"/>
</svg>
