<?xml version="1.0" encoding="utf-8"?>
<!-- Generator: Adobe Illustrator 19.0.0, SVG Export Plug-In . SVG Version: 6.00 Build 0)  -->
<svg version="1.1" id="Layer_1" xmlns="http://www.w3.org/2000/svg" xmlns:xlink="http://www.w3.org/1999/xlink" x="0px" y="0px"
	 viewBox="0 0 20 20" style="enable-background:new 0 0 20 20;" xml:space="preserve">
		<path d="M4,20v-4H2c-1.1,0-2-0.9-2-2V2c0-1.1,0.9-2,2-2h16c1.1,0,2,0.9,2,2v12c0,1.1-0.9,2-2,2H9.3L4,20z M2,2v12h4
			v2l2.7-2H18V2H2z"/>
		<path d="M7.2,8c0,0.7-0.6,1.2-1.2,1.2S4.8,8.7,4.8,8S5.3,6.8,6,6.8S7.2,7.3,7.2,8"/>
		<path d="M11.2,8c0,0.7-0.6,1.2-1.2,1.2S8.8,8.7,8.8,8S9.3,6.8,10,6.8S11.2,7.3,11.2,8"/>
		<path d="M15.2,8c0,0.7-0.6,1.2-1.2,1.2S12.8,8.7,12.8,8s0.6-1.2,1.2-1.2S15.2,7.3,15.2,8"/>
</svg>
