<?xml version="1.0" encoding="utf-8"?>
<!-- Generator: Adobe Illustrator 19.0.0, SVG Export Plug-In . SVG Version: 6.00 Build 0)  -->
<svg version="1.1" id="Isolation_Mode" xmlns="http://www.w3.org/2000/svg" xmlns:xlink="http://www.w3.org/1999/xlink" x="0px"
	 y="0px" viewBox="0 0 33 44.5" style="enable-background:new 0 0 33 44.5;" xml:space="preserve">
<g>
	<path d="M19.6,21C19.6,21,19.6,21,19.6,21L19.6,21C19.5,21,19.5,21,19.6,21L4.6,1.8c-0.7-0.9-1.9-1-2.8-0.3c-0.9,0.7-1,1.9-0.3,2.8
		l14,18l-14,18c-0.7,0.9-0.5,2.1,0.3,2.8c0.4,0.3,0.8,0.4,1.2,0.4c0.6,0,1.2-0.3,1.6-0.8l15-19.2C20.2,22.8,20.1,21.7,19.6,21z"/>
	<path d="M31,0H2C0.9,0,0,0.9,0,2s0.9,2,2,2h29c1.1,0,2-0.9,2-2S32.1,0,31,0z"/>
	<path d="M2,44.5h29c1.1,0,2-0.9,2-2s-0.9-2-2-2H2"/>
</g>
</svg>
