<?xml version="1.0" encoding="utf-8"?>
<!-- Generator: Adobe Illustrator 19.0.0, SVG Export Plug-In . SVG Version: 6.00 Build 0)  -->
<svg version="1.1" id="Layer_1" xmlns="http://www.w3.org/2000/svg" xmlns:xlink="http://www.w3.org/1999/xlink"
  x="0px" y="0px" width="16px" height="16px"
	 viewBox="0 0 6.8 4.9" style="enable-background:new 0 0 6.8 4.9;" xml:space="preserve">
<path d="M0.6,4.9h4.2c0.2,0,0.3-0.1,0.4-0.2l1.5-2.2L5.2,0.2C5.1,0.1,5,0,4.8,0H0.6C0.3,0,0,0.2,0,0.5v3.8
	C0,4.7,0.3,4.9,0.6,4.9z M4.2,2.1c0.2,0,0.4,0.2,0.4,0.4S4.5,2.9,4.2,2.9C4,2.9,3.8,2.7,3.8,2.5S4,2.1,4.2,2.1z M2.8,2.1
	c0.2,0,0.4,0.2,0.4,0.4S3,2.9,2.8,2.9c-0.2,0-0.4-0.2-0.4-0.4S2.6,2.1,2.8,2.1z M1.4,2.1c0.2,0,0.4,0.2,0.4,0.4S1.6,2.9,1.4,2.9
	C1.2,2.9,1,2.7,1,2.5S1.2,2.1,1.4,2.1z"/>
</svg>
