<?xml version="1.0" encoding="utf-8"?>
<!-- Generator: Adobe Illustrator 19.0.0, SVG Export Plug-In . SVG Version: 6.00 Build 0)  -->
<svg version="1.1" id="Layer_1" xmlns="http://www.w3.org/2000/svg" xmlns:xlink="http://www.w3.org/1999/xlink" x="0px" y="0px"
	 viewBox="0 0 23 13" style="enable-background:new 0 0 23 13;" xml:space="preserve">
<path d="M16.9,12.1c0.3,0,0.5-0.1,0.7-0.3l5-5c0.4-0.4,0.4-1,0-1.4l-4.9-4.9c-0.2-0.2-0.4-0.3-0.7-0.3H1.4
		c-0.3,0-0.5,0.1-0.7,0.3S0.4,0.9,0.4,1.2v9.9c0,0.3,0.1,0.5,0.3,0.7l0,0c0.2,0.2,0.4,0.3,0.7,0.3H16.9z M2.4,2.2h14.1l3.9,3.9
		l-3.9,3.9H2.4V2.2z"/>
<circle cx="6.9" cy="6.1" r="1.5"/>
<circle cx="14.9" cy="6.1" r="1.5"/>
<circle cx="10.9" cy="6.1" r="1.5"/>
</svg>
