<?xml version="1.0" encoding="utf-8"?>
<!-- Generator: Adobe Illustrator 19.0.0, SVG Export Plug-In . SVG Version: 6.00 Build 0)  -->
<svg version="1.1" id="Layer_1" xmlns="http://www.w3.org/2000/svg" xmlns:xlink="http://www.w3.org/1999/xlink" x="0px" y="0px"
	 viewBox="0 0 22 18" style="enable-background:new 0 0 22 18;" xml:space="preserve">
<path d="M2,3H0v13c0,1.1,0.9,2,2,2h15v-2H2V3z"/>
<polygon points="11,8.9 9.9,7 8,10 17,10 13.6,4.6 		"/>
<path d="M18.4,0H6C4.9,0,4,0.9,4,2v10c0,1.1,0.9,2,2,2h14c1.1,0,2-0.9,2-2V3.6L18.4,0z M6,12V2h11v3h3l0,7H6z"/>
</svg>
