<?xml version="1.0" encoding="utf-8"?>
<!-- Generator: Adobe Illustrator 19.0.0, SVG Export Plug-In . SVG Version: 6.00 Build 0)  -->
<svg version="1.1" id="Layer_1" xmlns="http://www.w3.org/2000/svg" xmlns:xlink="http://www.w3.org/1999/xlink" x="0px" y="0px"
	 viewBox="0 0 13.2 13.2" style="enable-background:new 0 0 13.2 13.2;" xml:space="preserve">
<path d="M9.1,1.5L9.1,1.5c-0.7-0.7-1.8-0.7-2.5,0L4.5,3.6l0.8,0.8l2.1-2.1c0.2-0.2,0.6-0.2,0.8,0L9.1,1.5z"/>
<path d="M10.8,4.9c0.2,0.2,0.2,0.6,0,0.8L8.7,7.9l0.8,0.8l2.1-2.1c0.7-0.7,0.7-1.8,0-2.5L10.8,4.9z"/>
<path d="M1.5,9.1l0.8-0.8c-0.2-0.2-0.2-0.6,0-0.8l2.1-2.1L3.6,4.5L1.5,6.6C0.8,7.3,0.8,8.4,1.5,9.1L1.5,9.1z"/>
<path d="M7.9,8.7l-2.1,2.1c-0.2,0.2-0.6,0.2-0.8,0l-0.8,0.8c0.4,0.4,0.8,0.5,1.3,0.5c0.5,0,0.9-0.2,1.3-0.5l2.1-2.1
	L7.9,8.7z"/>
<path d="M7.9,6.2L7,5.3l4.2-4.2l0.8,0.8L7.9,6.2z"/>
<path d="M1.9,12.1l-0.8-0.8L5.3,7l0.8,0.8L1.9,12.1z"/>
<path d="M13.2,9h-1.8V7.8h1.8V9z"/>
<path d="M9.6,13.2H8.4v-1.8h1.2V13.2z"/>
<path d="M4.8,1.8H3.6V0h1.2V1.8z"/>
<path d="M1.8,4.8H0V3.6h1.8V4.8z"/>
</svg>
