<?xml version="1.0" encoding="utf-8"?>
<!-- Generator: Adobe Illustrator 19.0.0, SVG Export Plug-In . SVG Version: 6.00 Build 0)  -->
<svg version="1.1" id="Layer_1" xmlns="http://www.w3.org/2000/svg" xmlns:xlink="http://www.w3.org/1999/xlink" x="0px" y="0px"
	 viewBox="0 0 20 22" style="enable-background:new 0 0 20 22;" xml:space="preserve">
<path d="M3.1,2h9.9v4h4v1h2V4.6L14.5,0H3.1c-1.1,0-2,0.9-2,2v5h2V2z"/>
<path d="M17,20H3.1v-1h-2v1c0,1.1,0.9,2,2,2H17c1.1,0,2-0.9,2-2v-1h-2V20z"/>
<path d="M8.1,9v8h5v-2h-3V9H8.1z"/>
<path d="M16.5,11H20V9h-3.5c-1.4,0-2.5,1.1-2.5,2.5s1.1,2.5,2.5,2.5h1c0.3,0,0.5,0.2,0.5,0.5c0,0.3-0.2,0.5-0.5,0.5H14
	v2h3.5c1.4,0,2.5-1.1,2.5-2.5S18.9,12,17.5,12h-1c-0.3,0-0.5-0.2-0.5-0.5C16,11.2,16.3,11,16.5,11z"/>
<path d="M2.3,17l1.2-2.1L4.8,17h2.3l-2.4-4l2.4-4H4.8l-1.2,2.1L2.3,9H0l2.4,4L0,17H2.3z"/>
</svg>
